<svg id="Capa_1" data-name="Capa 1" xmlns="http://www.w3.org/2000/svg" viewBox="0 0 2480 3508"><defs><style>.cls-1{fill:#dc143c;}.cls-2,.cls-3,.cls-4,.cls-7{fill:none;stroke-miterlimit:10;}.cls-2,.cls-7{stroke:#fff;}.cls-2,.cls-3{stroke-width:91.21px;}.cls-3{stroke:#000;}.cls-4{stroke:#dc143c;stroke-width:47.43px;}.cls-5{fill:#d5dde0;}.cls-6{fill:#8f94aa;}.cls-7{stroke-width:18.24px;}.cls-8{fill:#fff;}</style></defs><title>portada de libro sin bordes en letra</title><g id="trazos"><polygon points="2486.46 3509.32 6.46 3509.32 6.69 2139.85 2486.46 2139.28 2486.46 3509.32"/><polygon class="cls-1" points="0.23 2138.53 2480 2137.96 2480 0 0.23 -3.13 0.23 2138.53"/><g id="trazos-2" data-name="trazos"><path class="cls-2" d="M1198.79,2793.72c83.7,0,89.94,92.16,89.94,92.16l-.47,173.34c0,181.55,135,176.74,135,176.74h75.31"/><path class="cls-2" d="M2358.52,2795.73c-41.85,0-66.51-24.88-80.71-49.77-12.08-21.16-17.95-45.31-18-69.65l-.29-144.74c0-181.55-117.34-172.87-117.34-172.87h-63"/><path class="cls-3" d="M1198.79,2793.72c83.7,0,86.29-90.67,86.29-90.67V2529.2c0-181.55,130.07-172.54,130.07-172.54h79.72"/><path class="cls-3" d="M1198.79,2793.72l199.5,4.41h21.78a58.42,58.42,0,0,0,58.38-58.38v-39a44.9,44.9,0,0,0-44.91-44.91h-59.07"/><line class="cls-3" x1="2349.21" y1="2796.49" x2="2079.22" y2="2796.49"/><path class="cls-3" d="M2358.7,2796.93c-46.52,0-77.31,28.6-88.48,54a128.59,128.59,0,0,0-10.4,51.26l-.44,163.64c0,181.55-124.42,172.07-124.42,172.07l-63,.15"/><path class="cls-4" d="M1198.79,2789.6c83.7,0,86.29-90.67,86.29-90.67V2525.08c0-181.55,130.07-172.54,130.07-172.54h79.72"/><path class="cls-4" d="M1198.79,2789.6l199.5,4.41h21.78a58.42,58.42,0,0,0,58.38-58.38v-39a44.9,44.9,0,0,0-44.91-44.91h-59.07"/><line class="cls-4" x1="2349.21" y1="2792.33" x2="2079.22" y2="2792.33"/><path class="cls-4" d="M2358.7,2792.81c-46.52,0-77.31,28.6-88.48,54a128.59,128.59,0,0,0-10.4,51.26l-.44,163.64c0,181.55-124.42,172.07-124.42,172.07l-63,.15"/><path d="M1802,2769.79H1957.5c35.68,0,57.36,25.87,55.93,52-1.24,22.33-12,57.54-39,84.57-11.35,11.35-30,17.59-52.39,17.59h0c-27.44,0-51-8.28-64.76-23.79-25.94-29.22-27.33-71.69-30.83-93-1.86-11.35-8-20-24.34-20l0-17.34Z"/><path d="M1792.15,2769.79H1636.69c-35.68,0-57.36,25.87-55.9,52,1.24,22.33,12,57.54,39,84.57,11.35,11.35,30,17.59,52.39,17.59h0c27.44,0,51-8.28,64.76-23.79,25.94-29.22,27.33-71.69,30.83-93,1.86-11.35,8-20,24.34-20v-17.34Z"/><path d="M2003.92,2783.54c-11.42-12.08-27.91-18.72-46.41-18.72H1636.73c-18.53,0-35,6.64-46.41,18.72-4.71,5-24.3,1.79-24.3,6.28,0,23.61,9.3,24.85,9.85,32.22,1,12.3,5.33,14,6.75,14h181.15c15.54,0-3.79-43.93,33.35-43.93s17.8,43.93,33.35,43.93h181.15c1.46,0,5.84-1.68,6.75-14,.55-7.33,9.85-8.61,9.85-32.22C2028.21,2785.33,2008.59,2788.5,2003.92,2783.54Z"/><path class="cls-5" d="M1672.15,2918.32c-20.72,0-38.38-5.76-48.45-15.83-27.07-27.07-36.27-70.2-31-89.17,6.2-22.22,25.69-30.9,71.8-32.07,5.87-.15,11.35-.22,16.49-.22,47.76,0,69.69,6.42,73.34,44.59a96.5,96.5,0,0,1-21.49,71c-10.69,13-35.06,21.66-60.71,21.66Z"/><path class="cls-5" d="M1922,2918.32c20.72,0,38.38-5.76,48.45-15.83,27.07-27.07,36.27-70.2,31-89.17-6.2-22.22-25.69-30.9-71.8-32.07-5.87-.15-11.35-.22-16.49-.22-47.76,0-69.69,6.42-73.34,44.59a96.5,96.5,0,0,0,21.49,71c10.72,13,35.09,21.66,60.71,21.66Z"/><path class="cls-6" d="M1845.28,2850.82c54.58-2,105.84-7.41,152.44-16,1-8.21.77-15.36-.58-20.29-4.71-16.82-17.66-27.47-67.53-28.75-5.84-.15-11.27-.22-16.38-.22-51,0-65.78,8.72-68.81,40.5A88.91,88.91,0,0,0,1845.28,2850.82Z"/><path class="cls-6" d="M1748.92,2850.82c-54.58-2-105.84-7.41-152.44-16-1-8.21-.77-15.36.58-20.29,4.71-16.82,17.66-27.47,67.53-28.75,5.84-.15,11.27-.22,16.38-.22,51,0,65.78,8.72,68.81,40.5A89.29,89.29,0,0,1,1748.92,2850.82Z"/><rect class="cls-1" x="1570.72" y="2795.18" width="16.89" height="6.79"/><rect class="cls-1" x="2006.58" y="2795.18" width="16.89" height="6.79"/><path class="cls-7" d="M1553.06,2622.82s-9.41-98.07,29.88-171.48"/><line class="cls-7" x1="1799.34" y1="2529.75" x2="1799.34" y2="2374.47"/><path class="cls-7" d="M1766.5,2529.75s-5.14-95.45,6.42-137"/><path class="cls-7" d="M1589.84,2596.84s9.27-103,38.86-177.72"/><path class="cls-7" d="M1628.7,2596.84s17.22-141.64,46.59-177.72"/><path class="cls-7" d="M1676.2,2553.43s14.34-99.79,45.24-160.61"/><path class="cls-7" d="M1731.73,2529.75s0-76.88,15.47-132.81"/><path class="cls-7" d="M2045.36,2619.32s9.41-98.07-29.88-171.48"/><path class="cls-7" d="M1831.92,2526.28s5.14-95.45-6.42-137"/><path class="cls-7" d="M2008.59,2593.34s-9.27-103-38.86-177.72"/><path class="cls-7" d="M1969.69,2586s-17.22-141.64-46.59-177.72"/><path class="cls-7" d="M1922.22,2550s-14.34-99.79-45.24-160.61"/><path class="cls-7" d="M1866.69,2526.28s0-76.87-15.47-132.81"/><path class="cls-1" d="M1798.17,3198.49a322,322,0,0,1-85.49-11.86c-27.91-8.06-55.38-19.56-80.12-35.94-6.28-3.94-12.19-8.43-18.17-12.84l-8.65-7c-2.88-2.37-5.58-5-8.36-7.41s-5.4-5.14-8.1-7.77-5.25-5.33-7.73-8.14-5-5.55-7.37-8.46l-3.61-4.34L1567,3090a146.85,146.85,0,0,1-21.2-41.89,153.2,153.2,0,0,1-7-46.34q-.06-85.38,3.1-170.75c2.3-56.92,5.36-113.83,11.49-170.75,6.13,56.92,9.16,113.83,11.49,170.75q3.23,85.38,3.1,170.75a127.33,127.33,0,0,0,21.64,72.28l2.74,3.94,3.06,4q3,4,6.31,7.88c2.15,2.59,4.34,5.18,6.64,7.66s4.49,5.07,6.93,7.44a273.59,273.59,0,0,0,30.5,27,319.13,319.13,0,0,0,71.62,41.16C1743,3184.3,1770.3,3192.07,1798.17,3198.49Z"/><path class="cls-1" d="M1797.37,3198.49c27.91-6.42,55.17-14.19,80.82-25.32,6.39-2.85,12.84-5.4,19-8.65,3.1-1.57,6.24-3,9.3-4.67l9-5.11,4.49-2.55,4.38-2.77,8.72-5.47c5.62-4,11.35-7.73,16.67-12a261.93,261.93,0,0,0,30.5-27A258.5,258.5,0,0,0,2006,3074a126.92,126.92,0,0,0,21.6-72.24q-.06-85.38,3.1-170.79c2.3-56.92,5.36-113.83,11.49-170.79,6.13,56.92,9.16,113.83,11.49,170.79q3.23,85.38,3.1,170.79a154.2,154.2,0,0,1-7,46.3,146.08,146.08,0,0,1-21.23,41.92,251.58,251.58,0,0,1-30.36,33.31c-5.44,5.11-11.24,9.81-17,14.48-6,4.38-11.93,8.9-18.21,12.84-24.74,16.42-52.21,27.84-80.12,35.94A320.74,320.74,0,0,1,1797.37,3198.49Z"/><path class="cls-8" d="M1389.57,2339.66a187.93,187.93,0,0,0-40.43,24.85,191,191,0,0,0-17.29,15.73c-2.59,2.92-5.29,5.66-7.92,8.54l-7.11,9.19a36,36,0,0,0-3.39,4.74l-3.17,4.89-3.25,4.85c-1,1.64-1.82,3.43-2.81,5.11l-5.62,10.25c-1.5,3.61-3.06,7.19-4.71,10.76l-2.41,5.4-1.9,5.58-4,11.2c-2.48,7.55-4.16,15.36-6.79,23.13,0-4.05.26-8.06.47-12.15.07-2,.26-4.05.4-6.09a42.8,42.8,0,0,1,.66-6.09l2.33-12c.4-2,.8-4,1.28-6l1.9-5.87c1.24-3.9,2.55-7.84,3.94-11.71l5.25-11.24c.91-1.86,1.75-3.76,2.77-5.58l3.28-5.29,3.36-5.25a41.09,41.09,0,0,1,3.58-5.11,137.89,137.89,0,0,1,36.12-33.86C1358,2348.63,1373.45,2342,1389.57,2339.66Z"/><path class="cls-8" d="M1389.57,2807.11a134.72,134.72,0,0,0,37.69-5.51c11.78-3.72,22.55-9.71,31-18.13s14.78-19,19.26-30.65,7.33-24.19,9.92-37.11a101.48,101.48,0,0,1-1.79,39.7c-3.14,13.14-9.67,26-19.74,35.87a68.55,68.55,0,0,1-36.63,18.61A80.47,80.47,0,0,1,1389.57,2807.11Z"/><path class="cls-8" d="M2336,2800.62a126.7,126.7,0,0,0-25.83,19.08,124.51,124.51,0,0,0-19.48,24.15c-1.31,2.23-2.48,4.52-3.76,6.79a48.68,48.68,0,0,0-3.39,7c-1,2.41-2.26,4.71-3.14,7.19s-1.75,5-2.7,7.44a34.16,34.16,0,0,0-1.31,3.76c-.33,1.28-.66,2.59-1.06,3.87l-2.3,7.73c-1.35,5.25-2.34,10.58-4,16a140,140,0,0,1-1.31-16.71l.58-8.39a49.75,49.75,0,0,1,1.13-8.39c.55-2.77,1.13-5.55,1.79-8.32a83.72,83.72,0,0,1,2.74-8.14c1.75-5.47,4.71-10.47,7.41-15.54a85.59,85.59,0,0,1,23.42-25.07C2314.15,2806.53,2324.84,2801.75,2336,2800.62Z"/><path class="cls-8" d="M2145.44,3233.63a57.08,57.08,0,0,0,19.81-.58c3.21-.36,6.31-1.57,9.38-2.34,3-1.28,6.06-2.15,8.9-3.61a109.82,109.82,0,0,0,30.94-22.66c1.17-1.13,2.41-2.15,3.5-3.39l3.21-3.69,6.53-7.33c3.9-5.29,8.17-10.36,12-15.76,1.9-2.74,3.72-5.51,5.69-8.25s4-5.36,5.73-8.28c3.65-5.66,7.3-11.35,11.42-16.89-1.9,6.57-4.31,13-6.68,19.41-2.55,6.35-5.8,12.41-8.94,18.57a83,83,0,0,1-5.33,8.87l-5.73,8.68c-2.15,2.74-4.41,5.4-6.64,8.1l-3.39,4c-1.17,1.31-2.48,2.48-3.76,3.72a90.25,90.25,0,0,1-35.54,22.8,43.08,43.08,0,0,1-5.14,1.46c-1.75.4-3.47.88-5.22,1.17-3.58.26-7.08,1-10.65.69C2158.65,3238.22,2151.54,3237,2145.44,3233.63Z"/></g><path d="M411.13,372.46V268.2q0-17.47,1-40.91h-1.29L374.56,372.46H347.7L311.45,227.29h-1.29q1,23.44,1,40.91V372.46H285.24V183.83h44L361,322.18h1.29L394,183.83H437V372.46Z"/><path d="M455.14,219.34V188.66H483v30.68Zm0,153.12V236.1H483V372.46Z"/><path d="M637.36,331.55c0,28.41-15.86,42.61-49.2,42.61-32.69,0-48.22-13.64-48.22-42.61V277c0-28.69,15.54-42.61,48.55-42.61s48.87,13.92,48.87,42.61v33.81H567.13v21.31c0,13.64,7.12,20.45,21,20.45,14.56,0,21.69-6.82,21.69-20.45v-6.82h27.51v6.24Zm-27.51-55.11c0-13.64-6.8-20.45-21.36-20.45q-21.36,0-21.36,20.45v16.19h42.72Z"/><path d="M750,236.1l-36.57,65.62,37.87,70.74H722.17l-25.25-47.73h-1.29L671,372.46H642.22l38.19-69.32-36.9-67H672l24.92,45.45h1.29l23.95-45.45Z"/><path d="M763.91,438.65V236.1h24.92l1,19.6h1.29c6.8-14.77,17.15-21.31,34-21.31,23.3,0,37.22,12.78,37.22,36.36v67c0,23.58-13.92,36.36-36.9,36.36-15.54,0-26.54-5.68-32.69-18.75h-1.29v83.24h-27.5Zm70.24-162.21c0-14.2-7.12-20.45-20.39-20.45-13,0-18.45,5.68-23,19.89V332.7c4.53,14.2,10,19.89,23,19.89,13.27,0,20.39-6.25,20.39-20.45Z"/><path d="M978.5,331.55c0,28.41-15.86,42.61-49.2,42.61-32.69,0-48.22-13.64-48.22-42.61V277c0-28.69,15.54-42.61,48.55-42.61S978.5,248.32,978.5,277v33.81H908.27v21.31c0,13.64,7.12,20.45,21,20.45,14.56,0,21.69-6.82,21.69-20.45v-6.82h27.51v6.24ZM951,276.44c0-13.64-6.8-20.45-21.36-20.45q-21.36,0-21.36,20.45v16.19H951Z"/><path d="M997.27,372.46V236.1h25.89l1,23.3h1.29c6.15-15.91,17.48-25,33.66-25a29.49,29.49,0,0,1,13,2.84v22.44c-2.91-1.7-8.09-2.84-14.56-2.84-17.15,0-27.19,7.67-32.37,31.82v83.81H997.27Z"/><path d="M1086.92,219.34V188.66h27.83v30.68Zm0,153.12V236.1h27.83V372.46Z"/><path d="M1231,331.55c0,28.41-15.86,42.61-49.2,42.61-32.69,0-48.23-13.64-48.23-42.61V277c0-28.69,15.54-42.61,48.55-42.61s48.87,13.92,48.87,42.61v33.81h-70.23v21.31c0,13.64,7.12,20.45,21,20.45,14.56,0,21.68-6.82,21.68-20.45v-6.82h27.51v6.24Zm-27.51-55.11c0-13.64-6.8-20.45-21.36-20.45q-21.36,0-21.36,20.45v16.19h42.72Z"/><path d="M1320.92,372.46V275.3c0-13.35-7.12-19.32-20.07-19.32s-18.45,5.68-23.3,19.89v96.59h-27.83V236.1h25.89l1,19.6h1.29c6.8-14.77,17.48-21.31,34-21.31,22,0,37.22,12.78,37.22,36.36v101.7h-28.15Z"/><path d="M1437.11,321.89h26.54v9.66c0,28.41-14.24,42.61-47.58,42.61-32.69,0-48.22-13.64-48.22-42.61V277c0-28.69,15.54-42.61,48.55-42.61s47.25,13.92,47.25,42.61v9.09h-26.22V277c0-13.92-6.8-20.45-21-20.45S1395,263.09,1395,277v54.54c0,13.92,7.12,20.45,21,20.45,14.56,0,21-6.53,21-20.45v-9.66Z"/><path d="M1482.42,219.34V188.66h27.83v30.68Zm0,153.12V236.1h27.83V372.46Z"/><path d="M1599.91,372.46l-1-17.33h-1.29c-6.8,10.51-16.51,19-36.9,19-24.27,0-34-11.93-34-30.4V330.12c0-23.86,11-32.1,41.43-39.77,14.24-3.69,29.45-6,29.45-15.06v-5.68c0-9.38-6.47-13.92-20.07-13.92-14.56,0-22,5.11-22,15.34v8.81h-26.22V268.2c0-22.73,18.45-33.81,49.84-33.81,30.42,0,46.28,10.23,46.28,31.82V372.46Zm-2-75c-6.47,4.26-10.36,4.54-22.33,7.67-18.13,4.83-21.36,10.23-21.36,20.74v12.22c0,9.94,6.47,14.49,18.45,14.49,13,0,20.39-5.4,25.25-16.19V297.46Z"/><path d="M1751.38,321.89h26.54v9.66c0,28.41-14.24,42.61-47.58,42.61-32.69,0-48.22-13.64-48.22-42.61V277c0-28.69,15.54-42.61,48.55-42.61s47.25,13.92,47.25,42.61v9.09H1751.7V277c0-13.92-6.8-20.45-21-20.45s-21.36,6.53-21.36,20.45v54.54c0,13.92,7.12,20.45,21,20.45,14.56,0,21-6.53,21-20.45v-9.66Z"/><path d="M1893.78,331.55c0,29.26-15.54,42.61-48.55,42.61s-48.55-13.35-48.55-42.61V277c0-29.26,15.54-42.61,48.55-42.61s48.55,13.35,48.55,42.61ZM1866.59,277c0-13.92-7.12-20.45-21.36-20.45s-21.36,6.53-21.36,20.45v54.54c0,13.92,7.12,20.45,21.36,20.45s21.36-6.53,21.36-20.45Z"/><path d="M2050.1,372.46V275.3c0-13.35-6.8-19.32-19.1-19.32-12.62,0-17.8,5.68-22.33,19.89v96.59h-26.86V275.3c0-13.35-6.8-19.32-19.1-19.32-12.62,0-17.8,5.68-22.33,19.89v96.59h-27.83V236.1h25.89l1,19.6h1.29c6.47-14.77,16.83-21.31,32.37-21.31,16.51,0,29.13,8,33.34,23,8.74-17.9,21-23,35.6-23,21.36,0,36.25,12.78,36.25,36.36v101.7H2050.1Z"/><path d="M2194.13,331.55c0,29.26-15.54,42.61-48.55,42.61S2097,360.81,2097,331.55V277c0-29.26,15.54-42.61,48.55-42.61s48.55,13.35,48.55,42.61ZM2166.94,277c0-13.92-7.12-20.45-21.36-20.45s-21.36,6.53-21.36,20.45v54.54c0,13.92,7.12,20.45,21.36,20.45s21.36-6.53,21.36-20.45Z"/><path d="M228.46,803.55V482H337.84c27.26,0,47.29,6.77,61.24,20.69,13,13,19.64,31.76,19.64,55.71V615.2c0,24-6.61,42.7-19.64,55.71-13.94,13.92-34,20.69-61.24,20.69h-25.9v112H228.46Zm100.69-185c5.55,0,7.14-1.18,7.16-1.19s1.35-1.77,1.35-8.07V562.61a15.31,15.31,0,0,0-.65-5.16c-.6-.29-2.78-1.13-7.85-1.13H312v62.2Z"/><path class="cls-8" d="M288.94,662.6v112H245.46V493h89.38c44.45,0,60.88,20.78,60.88,56.4V606.2c0,35.62-16.43,56.4-60.88,56.4Zm0-33.08h37.2c20.29,0,28.51-10.6,28.51-29.26V553.61c0-17-8.21-26.29-28.51-26.29h-37.2Z"/><path d="M510.13,803.55V686.86a33.2,33.2,0,0,0-.35-5.35,34.69,34.69,0,0,0-6.7-.51H484V803.56H401.43V482H510.8c52.91,0,80.88,26.42,80.88,76.4V597c0,18.55-5.08,34-14.54,45.4,9.15,10,15.5,25,15.5,47.48V803.56H510.13Zm-8.51-194.36c4.52,0,6.39-.72,6.86-.94.26-.5,1.16-2.62,1.16-7.89V562.62a16.23,16.23,0,0,0-.62-5.24c-.72-.32-2.94-1-7.89-1h-17.2V609.2h17.69Z"/><path class="cls-8" d="M418.42,774.55V493H507.8c44.93,0,60.88,20.78,60.88,56.4V588c0,25.87-12.08,41.14-32.85,45.8v1.7c22.71,3.82,33.82,17.39,33.82,45.38v93.72H527.13V677.87c0-18.23-6.28-25.87-27.06-25.87H460.94V774.56H418.42ZM526.64,553.61c0-17.39-8.21-26.29-28.51-26.29h-37.2v92.87h37.68c17.39,0,28-7.21,28-28.84V553.61Z"/><path d="M671.69,806.1c-60.63,0-96.82-34.11-96.82-91.24V571.94c0-57.07,36.91-92.52,96.34-92.52,28.92,0,53.13,8.71,70,25.2s25.84,40.07,25.84,68.17V715.7c0,29-8.77,51.78-26.07,67.6C724.46,798.43,701.14,806.1,671.69,806.1Zm-1-251.05c-8.89,0-12.85,2-12.85,13.93V717.4c0,5.22,1,9.19,2.66,10.88s5.56,2.62,10.68,2.62,9.13-.94,10.78-2.53,2.56-5.41,2.56-10.55V569.4C684.54,558.4,681.31,555.05,670.72,555.05Z"/><path class="cls-8" d="M744.06,706.7c0,47.07-27.06,70.4-75.37,70.4-49.76,0-76.82-25.44-76.82-71.24V562.94c0-45.8,28-72.52,76.34-72.52s75.85,27.56,75.85,73.36V706.7ZM701.54,560.4c0-22-12.08-34.35-33.82-34.35-20.77,0-32.85,11.87-32.85,33.93V708.4c0,22.05,11.6,33.5,33.34,33.5,21.26,0,33.34-10.6,33.34-33.08V560.4Z"/><path d="M840.3,806.1c-26.95,0-49.41-8.48-65-24.53s-23.64-39-23.64-66.72V571.94c0-28.1,8.66-51.49,25-67.66s40.45-24.85,69.37-24.85c29.12,0,53.28,8.77,69.88,25.36,16.36,16.35,25,39.87,25,68v36.12H859.91V569.4c0-5.55-1-9.82-2.83-11.73-2.15-2.28-7.2-2.62-10-2.62-4.65,0-8.17.9-9.65,2.46-1.73,1.82-2.72,6-2.72,11.46v44H941V803.56h-66.8l-.3-3.38C864.2,804.14,853,806.1,840.3,806.1Zm-5.6-88.7c0,5.32,1,9.54,2.62,11.28,1.34,1.41,4.54,2.22,8.78,2.22,7.82,0,11.65-1.52,13.82-10.55V686.94H834.7Z"/><path class="cls-8" d="M889.48,774.55l-1.93-21.63h-1.93c-8.21,13.57-20.77,24.17-48.31,24.17-43.48,0-68.61-25.44-68.61-71.24V562.94c0-45.8,26.09-72.52,74.4-72.52,48.8,0,74.89,27.56,74.89,73.36V579.9H876.92V560.4c0-22-11.11-34.35-32.85-34.35-21.26,0-32.37,11.87-32.37,33.93V708.4c0,22.05,11.11,33.5,31.4,33.5,18.36,0,29.95-8.91,33.82-28.41V657.94H840.68V624H918V774.56h-28.5Z"/><path d="M1035.78,803.55V686.86a33.1,33.1,0,0,0-.35-5.35,34.69,34.69,0,0,0-6.7-.51H1009.6V803.56H927.08V482h109.38c52.91,0,80.88,26.42,80.88,76.4V597c0,18.55-5.08,34-14.54,45.4,9.15,10,15.5,25,15.5,47.48V803.56h-82.52Zm-8.5-194.36c4.52,0,6.39-.72,6.86-.94.26-.5,1.16-2.62,1.16-7.89V562.62a16.23,16.23,0,0,0-.62-5.24c-.72-.32-2.93-1-7.89-1h-17.2V609.2h17.69Z"/><path class="cls-8" d="M944.08,774.55V493h89.38c44.93,0,60.88,20.78,60.88,56.4V588c0,25.87-12.08,41.14-32.85,45.8v1.7c22.71,3.82,33.82,17.39,33.82,45.38v93.72h-42.52V677.87c0-18.23-6.28-25.87-27.06-25.87H986.6V774.56H944.08ZM1052.3,553.61c0-17.39-8.21-26.29-28.5-26.29H986.6v92.87h37.69c17.39,0,28-7.21,28-28.84V553.61Z"/><polygon points="1223.78 803.55 1211.22 737.4 1185.63 737.4 1174.04 803.55 1090.96 803.55 1153.31 481.97 1244.76 481.97 1307.11 803.55 1223.78 803.55"/><path class="cls-8" d="M1237.34,774.55l-12.56-66.16h-58.94l-11.59,66.16h-42L1166.81,493h58.46l54.59,281.58Zm-65.71-98.81H1219l-22.71-123.4h-1.93Z"/><polygon points="1470.12 803.55 1470.12 727.56 1451.15 803.55 1379.81 803.55 1360.83 727.57 1360.83 803.55 1282.18 803.55 1282.18 481.97 1383.82 481.97 1416.2 623.21 1448.58 481.97 1548.77 481.97 1548.77 803.55 1470.12 803.55"/><path class="cls-8" d="M1487.12,774.55V618.92q0-26.08,1.45-61.07h-1.93l-54.11,216.7h-40.1l-54.11-216.7h-1.93q1.45,35,1.45,61.07V774.55h-38.65V493h65.71l47.35,206.52h1.93L1461.53,493h64.26V774.55Z"/><polygon points="1656.19 803.55 1643.63 737.4 1618.04 737.4 1606.45 803.55 1523.37 803.55 1585.72 481.97 1677.17 481.97 1739.52 803.55 1656.19 803.55"/><path class="cls-8" d="M1669.75,774.55l-12.56-66.16h-58.94l-11.59,66.16h-42L1599.22,493h58.46l54.59,281.58ZM1604,675.74h47.35l-22.71-123.4h-1.93Z"/><path d="M1714.59,803.55V482h99.23c59.07,0,93,30.94,93,84.88v148c0,28.82-8.4,51.2-25,66.52-15.9,14.72-38.78,22.18-68,22.18Zm96.34-74.35c7.6,0,8.84-1.93,9.36-2.76,1.3-2,3.49-7.63,3.49-22.19V580.42c0-13.16-1.86-18.62-3.42-20.89s-5.45-3.21-11.85-3.21h-11.4V729.2Z"/><path class="cls-8" d="M1731.59,774.55V493h79.23c47.83,0,73,22,73,64.88v148c0,46.65-25.12,68.7-73,68.7Zm76.34-34.35c26.09,0,32.85-17,32.85-45V571.42c0-27.14-6.76-44.1-35.27-44.1h-31.4V740.2Z"/><path d="M1988.24,806.1c-60.63,0-96.82-34.11-96.82-91.24V571.94c0-57.07,36.91-92.52,96.34-92.52,28.92,0,53.13,8.71,70,25.2s25.84,40.07,25.84,68.17V715.7c0,29-8.77,51.78-26.07,67.6C2041,798.43,2017.7,806.1,1988.24,806.1Zm-1-251.05c-8.89,0-12.85,2-12.85,13.93V717.4c0,5.22,1,9.19,2.66,10.88s5.56,2.62,10.68,2.62,9.13-.94,10.78-2.53,2.56-5.41,2.56-10.55V569.4C2001.09,558.4,1997.86,555.05,1987.27,555.05Z"/><path class="cls-8" d="M2060.61,706.7c0,47.07-27.06,70.4-75.37,70.4-49.76,0-76.82-25.44-76.82-71.24V562.94c0-45.8,28-72.52,76.34-72.52s75.85,27.56,75.85,73.36Zm-42.52-146.3c0-22-12.08-34.35-33.82-34.35-20.77,0-32.85,11.87-32.85,33.93V708.4c0,22.05,11.6,33.5,33.34,33.5,21.26,0,33.34-10.6,33.34-33.08V560.4Z"/><path d="M2177,803.55V686.86a33.1,33.1,0,0,0-.35-5.35,34.69,34.69,0,0,0-6.7-.51h-19.13V803.56h-82.52V482h109.38c52.91,0,80.88,26.42,80.88,76.4V597c0,18.55-5.08,34-14.54,45.4,9.15,10,15.5,25,15.5,47.48V803.56H2177Zm-8.51-194.36c4.52,0,6.39-.72,6.86-.94.26-.5,1.16-2.62,1.16-7.89V562.62a16.23,16.23,0,0,0-.62-5.24c-.72-.32-2.94-1-7.89-1h-17.2V609.2h17.69Z"/><path class="cls-8" d="M2085.25,774.55V493h89.38c44.93,0,60.88,20.78,60.88,56.4V588c0,25.87-12.08,41.14-32.85,45.8v1.7c22.71,3.82,33.82,17.39,33.82,45.38v93.72H2194V677.87c0-18.23-6.28-25.87-27.06-25.87h-39.13V774.56h-42.52Zm108.22-220.94c0-17.39-8.21-26.29-28.5-26.29h-37.2v92.87h37.69c17.39,0,28-7.21,28-28.84V553.61Z"/><path class="cls-8" d="M288.94,662.6v112H245.46V493h89.38c44.45,0,60.88,20.78,60.88,56.4V606.2c0,35.62-16.43,56.4-60.88,56.4Zm0-33.08h37.2c20.29,0,28.51-10.6,28.51-29.26V553.61c0-17-8.21-26.29-28.51-26.29h-37.2Z"/><path class="cls-8" d="M418.42,774.55V493H507.8c44.93,0,60.88,20.78,60.88,56.4V588c0,25.87-12.08,41.14-32.85,45.8v1.7c22.71,3.82,33.82,17.39,33.82,45.38v93.72H527.13V677.87c0-18.23-6.28-25.87-27.06-25.87H460.94V774.56H418.42ZM526.64,553.61c0-17.39-8.21-26.29-28.51-26.29h-37.2v92.87h37.68c17.39,0,28-7.21,28-28.84V553.61Z"/><path class="cls-8" d="M744.06,706.7c0,47.07-27.06,70.4-75.37,70.4-49.76,0-76.82-25.44-76.82-71.24V562.94c0-45.8,28-72.52,76.34-72.52s75.85,27.56,75.85,73.36V706.7ZM701.54,560.4c0-22-12.08-34.35-33.82-34.35-20.77,0-32.85,11.87-32.85,33.93V708.4c0,22.05,11.6,33.5,33.34,33.5,21.26,0,33.34-10.6,33.34-33.08V560.4Z"/><path class="cls-8" d="M889.48,774.55l-1.93-21.63h-1.93c-8.21,13.57-20.77,24.17-48.31,24.17-43.48,0-68.61-25.44-68.61-71.24V562.94c0-45.8,26.09-72.52,74.4-72.52,48.8,0,74.89,27.56,74.89,73.36V579.9H876.92V560.4c0-22-11.11-34.35-32.85-34.35-21.26,0-32.37,11.87-32.37,33.93V708.4c0,22.05,11.11,33.5,31.4,33.5,18.36,0,29.95-8.91,33.82-28.41V657.94H840.68V624H918V774.56h-28.5Z"/><path class="cls-8" d="M944.08,774.55V493h89.38c44.93,0,60.88,20.78,60.88,56.4V588c0,25.87-12.08,41.14-32.85,45.8v1.7c22.71,3.82,33.82,17.39,33.82,45.38v93.72h-42.52V677.87c0-18.23-6.28-25.87-27.06-25.87H986.6V774.56H944.08ZM1052.3,553.61c0-17.39-8.21-26.29-28.5-26.29H986.6v92.87h37.69c17.39,0,28-7.21,28-28.84V553.61Z"/><path class="cls-8" d="M1237.34,774.55l-12.56-66.16h-58.94l-11.59,66.16h-42L1166.81,493h58.46l54.59,281.58Zm-65.71-98.81H1219l-22.71-123.4h-1.93Z"/><path class="cls-8" d="M1487.12,774.55V618.92q0-26.08,1.45-61.07h-1.93l-54.11,216.7h-40.1l-54.11-216.7h-1.93q1.45,35,1.45,61.07V774.55h-38.65V493h65.71l47.35,206.52h1.93L1461.53,493h64.26V774.55Z"/><path class="cls-8" d="M1669.75,774.55l-12.56-66.16h-58.94l-11.59,66.16h-42L1599.22,493h58.46l54.59,281.58ZM1604,675.74h47.35l-22.71-123.4h-1.93Z"/><path class="cls-8" d="M1731.59,774.55V493h79.23c47.83,0,73,22,73,64.88v148c0,46.65-25.12,68.7-73,68.7Zm76.34-34.35c26.09,0,32.85-17,32.85-45V571.42c0-27.14-6.76-44.1-35.27-44.1h-31.4V740.2Z"/><path class="cls-8" d="M2060.61,706.7c0,47.07-27.06,70.4-75.37,70.4-49.76,0-76.82-25.44-76.82-71.24V562.94c0-45.8,28-72.52,76.34-72.52s75.85,27.56,75.85,73.36Zm-42.52-146.3c0-22-12.08-34.35-33.82-34.35-20.77,0-32.85,11.87-32.85,33.93V708.4c0,22.05,11.6,33.5,33.34,33.5,21.26,0,33.34-10.6,33.34-33.08V560.4Z"/><path class="cls-8" d="M2085.25,774.55V493h89.38c44.93,0,60.88,20.78,60.88,56.4V588c0,25.87-12.08,41.14-32.85,45.8v1.7c22.71,3.82,33.82,17.39,33.82,45.38v93.72H2194V677.87c0-18.23-6.28-25.87-27.06-25.87h-39.13V774.56h-42.52Zm108.22-220.94c0-17.39-8.21-26.29-28.5-26.29h-37.2v92.87h37.69c17.39,0,28-7.21,28-28.84V553.61Z"/><path d="M623.28,1026.91l-1-19.6H621c-6.8,14.77-17.15,21.31-34,21.31-23.3,0-37.22-12.78-37.22-36.36v-67c0-23.58,13.92-36.36,36.9-36.36,15.54,0,26.54,5.68,32.69,18.75h1.29V836h27.51v190.91ZM578,986.57c0,14.2,7.12,20.45,20.39,20.45s18.77-6,23-22.73V932.87c-3.88-16.76-9.06-22.44-22.66-22.44-12.95,0-20.71,5.4-20.71,20.45Z"/><path d="M764.39,986c0,28.41-15.86,42.61-49.2,42.61C682.5,1028.61,667,1015,667,986V931.46c0-28.69,15.54-42.61,48.55-42.61s48.87,13.92,48.87,42.61v33.81H694.16v21.31c0,13.64,7.12,20.45,21,20.45,14.56,0,21.69-6.82,21.69-20.45v-6.82H764.4V986Zm-27.51-55.11c0-13.64-6.8-20.45-21.36-20.45q-21.36,0-21.36,20.45v16.19h42.72Z"/><path d="M852.1,932.59v-8c0-9.94-6.15-15.34-20.71-15.34-13.92,0-21.36,4.83-21.36,13.35v4.26c0,5.68,1.94,8.52,11.33,13.64,14.56,8,29.13,11.65,41.75,19,10.68,6.25,16.83,13.35,16.83,27.27v6.25c0,23.86-14.89,35.51-47.9,35.51-35.28,0-50.17-13.07-50.17-37.22v-8.24h26.54v9.09c0,10.8,6.15,16.19,22.33,16.19,15.21,0,21.68-4.83,21.68-15.06V988c0-5.68-1.94-10.23-13.59-15.91-1.94-.85-32-14.49-41.43-20.74-10.36-6.82-13.92-14.77-13.92-24.15v-6.82c0-18.75,16.83-31.53,46.93-31.53,32,0,47.9,14.2,47.9,36.93v6.82H852.1Z"/><path d="M897.41,1093.1V890.55h24.92l1,19.6h1.29c6.8-14.77,17.15-21.31,34-21.31,23.3,0,37.22,12.78,37.22,36.36v67c0,23.58-13.92,36.36-36.9,36.36-15.54,0-26.54-5.68-32.69-18.75h-1.29v83.24h-27.5Zm70.24-162.21c0-14.2-7.12-20.45-20.39-20.45-13,0-18.45,5.68-23,19.89v56.82c4.53,14.2,10,19.89,23,19.89,13.27,0,20.39-6.25,20.39-20.45Z"/><path d="M1042.74,890.55V986c0,15.34,6.15,21,20.07,21s18.77-5.68,22.66-22.16V890.54h27.83V1026.9h-26.22l-.65-19.6h-1.29c-7.12,15.34-17.15,21.31-34.31,21.31-26.54,0-36.25-15.06-36.25-42.9V890.54h28.16Z"/><path d="M1229.48,986c0,28.41-15.86,42.61-49.2,42.61-32.69,0-48.22-13.64-48.22-42.61V931.46c0-28.69,15.54-42.61,48.55-42.61s48.87,13.92,48.87,42.61v33.81h-70.23v21.31c0,13.64,7.12,20.45,21,20.45,14.56,0,21.69-6.82,21.69-20.45v-6.82h27.51V986Zm-63.11-102.27-11-9.94,48.22-46.31,14.89,14.77Zm35.6,47.16c0-13.64-6.8-20.45-21.36-20.45q-21.36,0-21.36,20.45v16.19H1202Z"/><path d="M1317.19,932.59v-8c0-9.94-6.15-15.34-20.71-15.34-13.92,0-21.36,4.83-21.36,13.35v4.26c0,5.68,1.94,8.52,11.33,13.64,14.56,8,29.13,11.65,41.75,19,10.68,6.25,16.83,13.35,16.83,27.27v6.25c0,23.86-14.89,35.51-47.9,35.51-35.28,0-50.17-13.07-50.17-37.22v-8.24h26.54v9.09c0,10.8,6.15,16.19,22.33,16.19,15.21,0,21.68-4.83,21.68-15.06V988c0-5.68-1.94-10.23-13.59-15.91-1.94-.85-32-14.49-41.43-20.74-10.36-6.82-13.92-14.77-13.92-24.15v-6.82c0-18.75,16.83-31.53,46.93-31.53,32,0,47.9,14.2,47.9,36.93v6.82h-26.21Z"/><path d="M1474.17,1026.91l-1-19.6h-1.29c-6.8,14.77-17.15,21.31-34,21.31-23.3,0-37.22-12.78-37.22-36.36v-67c0-23.58,13.92-36.36,36.9-36.36,15.54,0,26.54,5.68,32.69,18.75h1.29V836h27.51v190.91Zm-45.32-40.34c0,14.2,7.12,20.45,20.39,20.45s18.77-6,23-22.73V932.87c-3.88-16.76-9.06-22.44-22.66-22.44-13,0-20.71,5.4-20.71,20.45Z"/><path d="M1615.28,986c0,28.41-15.86,42.61-49.2,42.61-32.69,0-48.22-13.64-48.22-42.61V931.46c0-28.69,15.54-42.61,48.55-42.61s48.87,13.92,48.87,42.61v33.81h-70.23v21.31c0,13.64,7.12,20.45,21,20.45,14.56,0,21.68-6.82,21.68-20.45v-6.82h27.51V986Zm-27.51-55.11c0-13.64-6.8-20.45-21.36-20.45q-21.36,0-21.36,20.45v16.19h42.72Z"/><path d="M1672.24,1026.91V836h27.83v190.91Z"/><path d="M1816,986c0,29.26-15.54,42.61-48.55,42.61s-48.55-13.35-48.55-42.61V931.46c0-29.26,15.54-42.61,48.55-42.61S1816,902.2,1816,931.46Zm-27.19-54.54c0-13.92-7.12-20.45-21.36-20.45S1746,917.54,1746,931.46V986c0,13.92,7.12,20.45,21.36,20.45s21.36-6.53,21.36-20.45Z"/><path d="M1903.65,932.59v-8c0-9.94-6.15-15.34-20.71-15.34-13.92,0-21.36,4.83-21.36,13.35v4.26c0,5.68,1.94,8.52,11.33,13.64,14.56,8,29.13,11.65,41.75,19,10.68,6.25,16.83,13.35,16.83,27.27v6.25c0,23.86-14.89,35.51-47.9,35.51-35.28,0-50.17-13.07-50.17-37.22v-8.24H1860v9.09c0,10.8,6.15,16.19,22.33,16.19,15.21,0,21.69-4.83,21.69-15.06V988c0-5.68-1.94-10.23-13.59-15.91-1.94-.85-32-14.49-41.43-20.74-10.36-6.82-13.92-14.77-13.92-24.15v-6.82c0-18.75,16.83-31.53,46.93-31.53,32,0,47.9,14.2,47.9,36.93v6.82h-26.22Z"/><path class="cls-8" d="M1669.42,1104.22a42.85,42.85,0,0,1,11.66,2.42,70,70,0,0,1,10.83,4.75,85.66,85.66,0,0,1,19,14.13c11.36,11.11,19.68,25.21,24.83,40.16a116.79,116.79,0,0,1,5.17,23c.21,1.94.35,3.89.48,5.83.06,1,.15,1.94.19,2.91s0,1.94,0,2.91c0,1.94,0,3.88-.07,5.81s-.26,3.86-.44,5.78a104.53,104.53,0,0,1-4.65,22.53c-.56,1.83-1.29,3.63-2,5.42s-1.44,3.56-2.26,5.31a80,80,0,0,1-5.85,10.2,108,108,0,0,1-3.6-11c-1.15-3.58-2.06-7.09-3-10.54-1.93-6.9-3.57-13.57-5.35-20.06-.46-1.62-.81-3.24-1.26-4.84s-.91-3.18-1.32-4.77c-.21-.79-.39-1.59-.62-2.37s-.46-1.56-.69-2.34c-.47-1.56-.86-3.12-1.29-4.67-1.85-6.17-3.69-12.22-5.67-18.2a348.76,348.76,0,0,0-14.13-35.28c-2.77-5.89-5.75-11.84-9-18-1.65-3-3.33-6.18-5.15-9.34S1671.51,1107.64,1669.42,1104.22Z"/><path class="cls-8" d="M230.78,2621.13v53.15H210.14V2540.6h42.43c21.1,0,28.9,9.87,28.9,26.78v27c0,16.91-7.8,26.78-28.9,26.78H230.78Zm0-15.7h17.66c9.63,0,13.53-5,13.53-13.89v-22.15c0-8-3.9-12.48-13.53-12.48H230.78Z"/><path class="cls-8" d="M357.85,2645.29c0,20.74-11,30.2-34.41,30.2S289,2666,289,2645.29v-38.65c0-20.74,11-30.2,34.41-30.2s34.41,9.46,34.41,30.2Zm-19.27-38.65c0-9.87-5.05-14.5-15.14-14.5s-15.14,4.63-15.14,14.5v38.65c0,9.86,5.05,14.5,15.14,14.5s15.14-4.63,15.14-14.5Z"/><path class="cls-8" d="M371.15,2674.28v-96.64H389.5l.69,16.51h.92c4.36-11.27,12.39-17.72,23.85-17.72a20.86,20.86,0,0,1,9.17,2v15.9c-2.06-1.21-5.73-2-10.32-2-12.16,0-19.27,5.44-22.94,22.55v59.39H371.15Z"/><path class="cls-8" d="M434.22,2600.39v-24.16H454.4v24.16Zm0,72.88v-24.16H454.4v24.16Z"/><path class="cls-1" d="M264.61,2856.59l-.92-10.27h-.92c-3.9,6.44-9.86,11.48-22.94,11.48-20.64,0-32.57-12.08-32.57-33.82v-67.85c0-21.74,12.39-34.43,35.32-34.43,23.17,0,35.55,13.09,35.55,34.83v7.65h-19.5v-9.26c0-10.47-5.28-16.31-15.6-16.31-10.09,0-15.37,5.64-15.37,16.11v70.46c0,10.47,5.28,15.9,14.91,15.9,8.72,0,14.22-4.23,16.06-13.49v-26.37h-17.2v-16.11h36.7v71.47H264.61Z"/><path class="cls-1" d="M360,2827.6c0,20.13-11.24,30.2-34.86,30.2-23.17,0-34.18-9.66-34.18-30.2V2789c0-20.33,11-30.2,34.4-30.2S360,2768.62,360,2789v24H310.25V2828c0,9.66,5.05,14.5,14.91,14.5,10.32,0,15.37-4.83,15.37-14.5v-4.83H360Zm-19.5-39.06c0-9.66-4.82-14.5-15.14-14.5q-15.13,0-15.14,14.5V2800h30.28v-11.48Z"/><path class="cls-1" d="M373.33,2856.59V2760h18.35l.69,16.51h.92c4.36-11.27,12.39-17.72,23.85-17.72a20.86,20.86,0,0,1,9.17,2v15.9c-2.06-1.21-5.73-2-10.32-2-12.16,0-19.27,5.44-22.94,22.55v59.39H373.33Z"/><path class="cls-1" d="M483,2856.59l-.69-12.28h-.92c-4.82,7.45-11.7,13.49-26.15,13.49-17.2,0-24.08-8.46-24.08-21.54v-9.66c0-16.91,7.8-22.75,29.36-28.19,10.09-2.62,20.87-4.23,20.87-10.67v-4c0-6.64-4.59-9.87-14.22-9.87-10.32,0-15.6,3.62-15.6,10.87V2791H433v-8.25c0-16.11,13.07-24,35.32-24,21.56,0,32.8,7.25,32.8,22.55v75.3Zm-1.38-53.15c-4.59,3-7.34,3.22-15.83,5.44-12.84,3.42-15.14,7.25-15.14,14.7v8.66c0,7.05,4.59,10.27,13.07,10.27,9.17,0,14.45-3.82,17.89-11.48v-27.59Z"/><path class="cls-1" d="M514.16,2856.59V2760h18.35l.69,16.51h.92c4.36-11.27,12.39-17.72,23.85-17.72a20.86,20.86,0,0,1,9.17,2v15.9c-2.06-1.21-5.73-2-10.32-2-12.16,0-19.27,5.44-22.94,22.55v59.39H514.16Z"/><path class="cls-1" d="M629.76,2856.59l-.69-13.89h-.92c-4.82,10.47-12.16,15.1-24.08,15.1-16.51,0-26.38-9.06-26.38-25.77v-47.51c0-16.71,9.86-25.77,26.15-25.77,11,0,18.81,4,23.17,13.29h.92v-50.73h19.5V2856.6H629.76ZM597.65,2828c0,10.07,5.05,14.5,14.45,14.5s13.3-4.23,16.29-16.11V2790c-2.75-11.88-6.42-15.9-16.06-15.9-9.17,0-14.68,3.82-14.68,14.5Z"/><path class="cls-1" d="M729.53,2827.6c0,20.74-11,30.2-34.4,30.2s-34.4-9.46-34.4-30.2V2789c0-20.74,11-30.2,34.4-30.2s34.4,9.46,34.4,30.2ZM710.27,2789c0-9.86-5-14.5-15.14-14.5S680,2779.08,680,2789v38.65c0,9.86,5,14.5,15.14,14.5s15.14-4.63,15.14-14.5Z"/><path class="cls-1" d="M818.29,2722.91h20.18V2824c0,21.74-12.16,33.82-35.78,33.82-22.94,0-34.86-11.07-34.86-33.42v-16.31H787.1v17.31c0,10.67,5.28,15.7,15.37,15.7,10.32,0,15.83-5.44,15.83-15.9V2722.91Z"/><path class="cls-1" d="M877.93,2856.59v-24.16h20.18v24.16Z"/><path class="cls-1" d="M263.24,3029.15l-6-31.41h-28l-5.5,31.41h-20l25.92-133.68h27.75l25.92,133.68Zm-31.2-46.9h22.48l-10.78-58.59h-.92Z"/><path class="cls-1" d="M293.05,3029.15v-96.64H311.4l.69,16.51H313c4.36-11.27,12.39-17.72,23.85-17.72a20.86,20.86,0,0,1,9.17,2v15.9c-2.06-1.21-5.73-2-10.32-2-12.16,0-19.27,5.44-22.94,22.55v59.39H293.05Z"/><path class="cls-1" d="M356.58,3029.15v-96.64h18.35l.69,16.51h.92c4.36-11.27,12.39-17.72,23.85-17.72a20.86,20.86,0,0,1,9.17,2v15.9c-2.06-1.21-5.73-2-10.32-2-12.16,0-19.27,5.44-22.94,22.55v59.39H356.58Z"/><path class="cls-1" d="M420.12,2920.64V2898.9h19.73v21.74Zm0,108.51v-96.64h19.73v96.64Z"/><path class="cls-1" d="M522.18,3000.16c0,20.13-11.24,30.2-34.86,30.2-23.17,0-34.18-9.66-34.18-30.2v-38.65c0-20.33,11-30.2,34.4-30.2s34.63,9.87,34.63,30.2v24H472.4v15.1c0,9.66,5.05,14.5,14.91,14.5,10.32,0,15.37-4.83,15.37-14.5v-4.83h19.5Zm-19.49-39c0-9.66-4.82-14.5-15.14-14.5q-15.14,0-15.14,14.5v11.48h30.28v-11.48Z"/><path class="cls-1" d="M583.65,2974h17v26.17c0,20.33-7.57,30.2-30.73,30.2-23.62,0-34.4-9.87-34.4-30.2v-94.42H555v26.78h45.64V2948H555v52.14c0,9.86,4.82,14.5,15.14,14.5,9.86,0,13.53-4.63,13.53-14.5V2974Z"/><path class="cls-1" d="M664.39,3029.15l-.69-12.28h-.92c-4.82,7.45-11.7,13.49-26.15,13.49-17.2,0-24.08-8.46-24.08-21.54v-9.66c0-16.91,7.8-22.75,29.36-28.19,10.09-2.62,20.87-4.23,20.87-10.67v-4c0-6.64-4.59-9.87-14.22-9.87-10.32,0-15.6,3.62-15.6,10.87v6.24H614.38v-8.25c0-16.11,13.07-24,35.32-24,21.56,0,32.8,7.25,32.8,22.55v75.3ZM663,2976c-4.59,3-7.34,3.22-15.83,5.44-12.84,3.42-15.14,7.25-15.14,14.7v8.66c0,7.05,4.59,10.27,13.07,10.27,9.17,0,14.45-3.82,17.89-11.48V2976Z"/><path class="cls-1" d="M793.52,2996.94c0,22.35-12.84,33.42-35.78,33.42-23.62,0-36.47-12.08-36.47-33.82v-67.85c0-21.74,13.3-34.43,36.24-34.43s36,13.09,36,34.83Zm-20.19-69.45c0-10.47-5.73-16.31-16.06-16.31-9.86,0-15.6,5.64-15.6,16.11v70.46c0,10.47,5.51,15.9,15.83,15.9,10.09,0,15.83-5,15.83-15.7v-70.46Z"/><path class="cls-1" d="M832.28,3029.15V3005h20.18v24.16H832.28Z"/><path d="M1057.79,1931.82V1746.91H836.13V1615.28L1049,1089.2h187.56v491.56h54V1746.9h-54v184.91H1057.79Zm2.3-351V1454.86l-54.26,125.91Z"/><path d="M1073.79,1907.82V1722.91H852.13V1615.18l206.36-510h154.08v491.56h54v126.14h-54v184.91Zm2.3-311V1353.91L971.44,1596.77Z"/><path d="M1074.79,1907.82V1722.91H853.13V1615.18l206.36-510h154.08v491.56h54v126.14h-54v184.91Zm2.3-311V1353.91L972.44,1596.77Z"/><path d="M1090.79,1883.82V1698.91H869.13v-83.84L1069,1121.21h120.59v491.56h54v86.14h-54v184.91Zm2.3-620.2h-4.59L938,1612.77h155Z"/><path d="M1487.14,1938.71c-35.45,0-67.71-6.6-95.89-19.63a189.87,189.87,0,0,1-72.79-59.25c-36.55-48.74-55.09-118-55.09-205.75V1367c0-87.79,18.53-157,55.09-205.75a189.78,189.78,0,0,1,72.79-59.25c28.17-13,60.43-19.63,95.89-19.63,35,0,66.53,6.36,93.85,18.91a182.14,182.14,0,0,1,70.23,57.1c35.79,47.72,53.94,117.14,53.94,206.33v291.72c0,102.94-23.87,179.17-70.94,226.57C1597.47,1920,1548,1938.71,1487.14,1938.71Zm-2.3-681.07c-35.42,0-39.25,74.83-39.25,107v291.72c0,32.17,3.82,107,39.25,107,9.61,0,17-2.55,24-15.26,7-12.56,15.24-38.47,15.24-90.6v-294c0-38.6-4.37-67.44-13-85.73C1502.71,1259.93,1492.66,1257.64,1484.84,1257.64Z"/><path d="M1483.14,1914.71c-32.53,0-62-6-87.5-17.78a170.05,170.05,0,0,1-65.18-53.1c-33.9-45.2-51.09-110.39-51.09-193.75V1363c0-83.36,17.19-148.55,51.09-193.75a170.05,170.05,0,0,1,65.18-53.1c25.52-11.8,55-17.78,87.5-17.78,64.41,0,114.23,22.88,148.08,68,33.14,44.18,49.94,109.56,49.94,194.33v291.72C1681.16,1869.2,1573.48,1914.71,1483.14,1914.71Zm-2.3-681.07c-49,0-59.25,69.07-59.25,127v291.72c0,57.94,10.28,127,59.25,127,18.66,0,31.85-8.13,41.51-25.58,11.77-21.27,17.74-55,17.74-100.28v-294C1540.09,1276,1520.16,1233.64,1480.84,1233.64Z"/><path d="M1484.14,1914.71c-32.53,0-62-6-87.5-17.78a170.05,170.05,0,0,1-65.18-53.1c-33.9-45.2-51.09-110.39-51.09-193.75V1363c0-83.36,17.19-148.55,51.09-193.75a170.05,170.05,0,0,1,65.18-53.1c25.52-11.8,55-17.78,87.5-17.78,64.41,0,114.23,22.88,148.08,68,33.14,44.18,49.94,109.56,49.94,194.33v291.72C1682.16,1869.2,1574.48,1914.71,1484.14,1914.71Zm-2.3-681.07c-49,0-59.25,69.07-59.25,127v291.72c0,57.94,10.28,127,59.25,127,18.66,0,31.85-8.13,41.51-25.58,11.77-21.27,17.74-55,17.74-100.28v-294C1541.09,1276,1521.16,1233.64,1481.84,1233.64Z"/><path d="M1658.16,1648.38c0,164.24-63.17,242.34-178,242.34-119.45,0-183.76-86.14-183.76-244.63V1359c0-158.5,64.32-244.63,183.76-244.63,114.85,0,178,79.25,178,242.34ZM1557.09,1355.5c0-97.62-27.56-145.86-79.25-145.86s-79.25,50.53-79.25,147v291.72c0,96.48,27.56,147,79.25,147s79.25-47.09,79.25-145.86Z"/><path class="cls-8" d="M1090.79,1883.82V1698.91H869.13v-83.84L1069,1121.21h120.59v491.56h54v86.14h-54v184.91Zm2.3-620.2h-4.59L938,1612.77h155Z"/><path class="cls-8" d="M1658.16,1648.38c0,164.24-63.17,242.34-178,242.34-119.45,0-183.76-86.14-183.76-244.63V1359c0-158.5,64.32-244.63,183.76-244.63,114.85,0,178,79.25,178,242.34ZM1557.09,1355.5c0-97.62-27.56-145.86-79.25-145.86s-79.25,50.53-79.25,147v291.72c0,96.48,27.56,147,79.25,147s79.25-47.09,79.25-145.86Z"/><path d="M1852.87,1692.07c-30.49,0-53-6.81-68.95-20.82s-24-34.51-24-60.86v-33.65h57.55c-10.62-6-21-12.21-27-16.77-19-14.25-28.2-32.56-28.2-56v-11.3c0-21.56,9-40.55,25.3-53.46,15.53-12.3,37.31-18.8,63-18.8,27.9,0,50,7.31,65.81,21.71s23.87,34.84,23.87,59.49v31.3h-44.75a155.57,155.57,0,0,1,13.71,8.09c15.55,10.36,33.39,26.76,33.39,61.84v10.36c0,25.92-8,45.92-23.83,59.46C1903.47,1685.73,1881.93,1692.07,1852.87,1692.07Zm-13.75-75.19c.66.37,3.69,1.77,11.87,1.77,7.24,0,10.28-1.09,11.21-1.53a13.89,13.89,0,0,0,.33-3.42v-9a8.14,8.14,0,0,0-.15-2.07h0s-1.33-2.32-9.06-6.66c-1.67-.85-7.37-3.79-14.82-7.75v23.55A14.55,14.55,0,0,0,1839.12,1616.88Zm1.74-112.71a51,51,0,0,0,7,4.94c4.7,2.92,9.4,5.46,14.18,7.85v-17.22a12.61,12.61,0,0,0-.47-4c-.63-.34-3.21-1.47-9.66-1.47-6.9,0-10,1.23-11.07,1.78,0,.1,0,.22,0,.35v7.06C1840.85,1503.77,1840.86,1504,1840.86,1504.17Z"/><path d="M1879.06,1508.93v-13.18c0-16.48-9-25.43-30.13-25.43-20.25,0-31.08,8-31.08,22.13v7.06c0,9.42,2.83,14.13,16.48,22.6,21.19,13.18,42.38,19.3,60.74,31.55,15.54,10.36,24.48,22.13,24.48,45.2v10.36c0,39.55-21.66,58.85-69.68,58.85-51.32,0-73-21.66-73-61.68v-13.65h38.61v15.07c0,17.89,9,26.84,32.49,26.84,22.13,0,31.55-8,31.55-25v-9c0-9.42-2.83-17-19.78-26.37-2.83-1.41-46.61-24-60.27-34.37-15.07-11.3-20.25-24.48-20.25-40v-11.3c0-31.08,24.48-52.26,68.27-52.26,46.61,0,69.68,23.54,69.68,61.21v11.3h-38.13Z"/><path class="cls-8" d="M1879.06,1508.93v-13.18c0-16.48-9-25.43-30.13-25.43-20.25,0-31.08,8-31.08,22.13v7.06c0,9.42,2.83,14.13,16.48,22.6,21.19,13.18,42.38,19.3,60.74,31.55,15.54,10.36,24.48,22.13,24.48,45.2v10.36c0,39.55-21.66,58.85-69.68,58.85-51.32,0-73-21.66-73-61.68v-13.65h38.61v15.07c0,17.89,9,26.84,32.49,26.84,22.13,0,31.55-8,31.55-25v-9c0-9.42-2.83-17-19.78-26.37-2.83-1.41-46.61-24-60.27-34.37-15.07-11.3-20.25-24.48-20.25-40v-11.3c0-31.08,24.48-52.26,68.27-52.26,46.61,0,69.68,23.54,69.68,61.21v11.3h-38.13Z"/></g></svg>